<svg width="115" height="29" viewBox="0 0 115 29" fill="none" xmlns="http://www.w3.org/2000/svg">
<path d="M2.276 22C1.79067 22 1.39867 21.888 1.1 21.664C0.82 21.44 0.68 21.1693 0.68 20.852V2.708C0.68 2.316 0.848 2.02667 1.184 1.84C1.52 1.63467 1.884 1.532 2.276 1.532H7.708C8.66 1.532 9.56533 1.672 10.424 1.952C11.2827 2.21333 11.9827 2.69867 12.524 3.408C13.0653 4.11733 13.336 5.13467 13.336 6.46C13.336 7.59867 13.1213 8.55067 12.692 9.316C12.2627 10.0627 11.684 10.5947 10.956 10.912C11.5347 11.1173 12.0387 11.4067 12.468 11.78C12.8973 12.1347 13.2333 12.6107 13.476 13.208C13.7187 13.7867 13.84 14.5427 13.84 15.476V16.064C13.84 17.52 13.588 18.6867 13.084 19.564C12.5987 20.4227 11.9267 21.048 11.068 21.44C10.228 21.8133 9.28533 22 8.24 22H2.276ZM4.32 18.808H7.456C8.31467 18.808 8.98667 18.5653 9.472 18.08C9.95733 17.5947 10.2 16.82 10.2 15.756V15.308C10.2 14.2067 9.95733 13.4413 9.472 13.012C8.98667 12.564 8.31467 12.34 7.456 12.34H4.32V18.808ZM4.32 9.484H7.456C8.22133 9.484 8.78133 9.26 9.136 8.812C9.50933 8.364 9.696 7.78533 9.696 7.076C9.696 6.572 9.60267 6.152 9.416 5.816C9.22933 5.46133 8.968 5.19067 8.632 5.004C8.296 4.81733 7.89467 4.724 7.428 4.724H4.32V9.484ZM18.9787 22.252C17.9893 22.252 17.1307 21.9533 16.4027 21.356C15.6933 20.74 15.3387 19.7973 15.3387 18.528C15.3387 17.464 15.6093 16.6333 16.1507 16.036C16.7107 15.4387 17.476 15.0187 18.4467 14.776C19.436 14.5333 20.5747 14.412 21.8627 14.412H23.0107V14.048C23.0107 13.6373 22.9267 13.236 22.7587 12.844C22.6093 12.452 22.3573 12.1253 22.0027 11.864C21.6667 11.6027 21.1813 11.472 20.5467 11.472C19.8373 11.472 19.2867 11.5467 18.8947 11.696C18.5213 11.8267 18.232 11.9667 18.0267 12.116C17.8213 12.2653 17.5973 12.34 17.3547 12.34C16.9627 12.34 16.6547 12.144 16.4307 11.752C16.2253 11.36 16.1227 10.9587 16.1227 10.548C16.1227 10.156 16.356 9.81067 16.8227 9.512C17.308 9.19467 17.896 8.952 18.5867 8.784C19.2773 8.616 19.9493 8.532 20.6027 8.532C22.0587 8.532 23.2253 8.79333 24.1027 9.316C24.98 9.83867 25.6147 10.5107 26.0067 11.332C26.4173 12.1533 26.6227 13.04 26.6227 13.992V20.824C26.6227 21.16 26.4547 21.44 26.1187 21.664C25.7827 21.888 25.3627 22 24.8587 22C24.392 22 24 21.888 23.6827 21.664C23.384 21.44 23.2347 21.16 23.2347 20.824V20.04C22.7307 20.6187 22.1333 21.132 21.4427 21.58C20.7707 22.028 19.9493 22.252 18.9787 22.252ZM20.4347 19.564C20.8267 19.564 21.2187 19.4333 21.6107 19.172C22.0027 18.9107 22.3293 18.5747 22.5907 18.164C22.8707 17.7533 23.0107 17.324 23.0107 16.876V16.288H22.5907C21.9747 16.288 21.3867 16.3253 20.8267 16.4C20.2667 16.4747 19.8093 16.6427 19.4547 16.904C19.1187 17.1467 18.9507 17.5293 18.9507 18.052C18.9507 18.5747 19.0907 18.9573 19.3707 19.2C19.6693 19.4427 20.024 19.564 20.4347 19.564ZM34.9303 22.252C33.5117 22.252 32.3543 22 31.4583 21.496C30.5623 20.992 29.8997 20.3107 29.4703 19.452C29.041 18.5747 28.8263 17.5947 28.8263 16.512V14.272C28.8263 13.1893 29.0317 12.2187 29.4423 11.36C29.8717 10.4827 30.5343 9.792 31.4303 9.288C32.345 8.784 33.493 8.532 34.8743 8.532C35.7517 8.532 36.5263 8.63467 37.1983 8.84C37.8703 9.04533 38.4023 9.316 38.7943 9.652C39.1863 9.988 39.3823 10.3427 39.3823 10.716C39.3823 10.94 39.317 11.192 39.1863 11.472C39.0743 11.7333 38.9063 11.9667 38.6823 12.172C38.477 12.3773 38.2343 12.48 37.9543 12.48C37.749 12.48 37.5343 12.4147 37.3103 12.284C37.105 12.1533 36.8343 12.0227 36.4983 11.892C36.1623 11.7613 35.7143 11.696 35.1543 11.696C34.2023 11.696 33.5117 11.9293 33.0823 12.396C32.653 12.844 32.4383 13.4693 32.4383 14.272V16.512C32.4383 17.3147 32.653 17.9493 33.0823 18.416C33.5117 18.864 34.2117 19.088 35.1823 19.088C35.761 19.088 36.209 19.0133 36.5263 18.864C36.8437 18.7147 37.105 18.5747 37.3103 18.444C37.5343 18.3133 37.7583 18.248 37.9823 18.248C38.3183 18.248 38.5983 18.3413 38.8223 18.528C39.065 18.7147 39.2423 18.948 39.3543 19.228C39.485 19.4893 39.5503 19.732 39.5503 19.956C39.5503 20.3293 39.345 20.6933 38.9343 21.048C38.5423 21.4027 37.9917 21.692 37.2823 21.916C36.5917 22.14 35.8077 22.252 34.9303 22.252ZM43.2076 22C42.7036 22 42.2836 21.8787 41.9476 21.636C41.6116 21.3933 41.4436 21.1227 41.4436 20.824V2.064C41.4436 1.728 41.6116 1.45733 41.9476 1.252C42.2836 1.04667 42.7036 0.943999 43.2076 0.943999C43.7303 0.943999 44.169 1.04667 44.5236 1.252C44.8783 1.45733 45.0556 1.728 45.0556 2.064V13.796L50.3476 8.84C50.5343 8.65333 50.7676 8.56 51.0476 8.56C51.3276 8.56 51.5983 8.65333 51.8596 8.84C52.1396 9.008 52.3636 9.22267 52.5316 9.484C52.7183 9.74533 52.8116 10.016 52.8116 10.296C52.8116 10.408 52.7836 10.5293 52.7276 10.66C52.6903 10.772 52.6156 10.8747 52.5036 10.968L49.1996 13.964L53.3436 19.844C53.4743 20.0493 53.5396 20.2453 53.5396 20.432C53.5396 20.712 53.4276 20.992 53.2036 21.272C52.9796 21.552 52.709 21.7853 52.3916 21.972C52.0743 22.14 51.7663 22.224 51.4676 22.224C51.0943 22.224 50.7956 22.0653 50.5716 21.748L46.8196 16.204L45.0556 17.772V20.824C45.0556 21.1227 44.8783 21.3933 44.5236 21.636C44.169 21.8787 43.7303 22 43.2076 22ZM61.2775 22.252C59.9521 22.252 58.7761 22.0187 57.7495 21.552C56.7415 21.0667 55.9481 20.3947 55.3695 19.536C54.7908 18.6587 54.5015 17.6507 54.5015 16.512V14.132C54.5015 13.124 54.7721 12.2 55.3135 11.36C55.8735 10.5013 56.6108 9.82 57.5255 9.316C58.4588 8.79333 59.4948 8.532 60.6335 8.532C61.6788 8.532 62.6308 8.756 63.4895 9.204C64.3668 9.652 65.0761 10.268 65.6175 11.052C66.1588 11.836 66.4295 12.7507 66.4295 13.796C66.4295 14.5987 66.2988 15.1773 66.0375 15.532C65.7761 15.868 65.4401 16.0827 65.0295 16.176C64.6375 16.2507 64.2268 16.288 63.7975 16.288H58.1135V16.708C58.1135 17.5107 58.4121 18.164 59.0095 18.668C59.6255 19.1533 60.4188 19.396 61.3895 19.396C62.0055 19.396 62.5188 19.3027 62.9295 19.116C63.3401 18.9293 63.6948 18.752 63.9935 18.584C64.2921 18.416 64.5721 18.332 64.8335 18.332C65.1135 18.332 65.3561 18.4253 65.5615 18.612C65.7668 18.7987 65.9255 19.0227 66.0375 19.284C66.1495 19.5267 66.2055 19.7413 66.2055 19.928C66.2055 20.2453 66.0001 20.5907 65.5895 20.964C65.1975 21.3187 64.6281 21.6267 63.8815 21.888C63.1535 22.1307 62.2855 22.252 61.2775 22.252ZM58.1135 14.16H62.2015C62.5188 14.16 62.7335 14.1133 62.8455 14.02C62.9761 13.908 63.0415 13.7027 63.0415 13.404C63.0415 12.9747 62.9201 12.592 62.6775 12.256C62.4535 11.92 62.1548 11.6587 61.7815 11.472C61.4268 11.2853 61.0255 11.192 60.5775 11.192C60.1481 11.192 59.7468 11.2853 59.3735 11.472C59.0001 11.64 58.6921 11.892 58.4495 12.228C58.2255 12.5453 58.1135 12.928 58.1135 13.376V14.16ZM73.0193 22.252C72.142 22.252 71.33 21.9813 70.5833 21.44C69.8366 20.8987 69.2393 20.1893 68.7913 19.312C68.3433 18.4347 68.1193 17.5013 68.1193 16.512V14.216C68.1193 13.1707 68.3433 12.2187 68.7913 11.36C69.2393 10.5013 69.8366 9.82 70.5833 9.316C71.33 8.79333 72.1606 8.532 73.0753 8.532C73.9526 8.532 74.6993 8.756 75.3153 9.204C75.9313 9.63333 76.3886 10.1187 76.6873 10.66V2.064C76.6873 1.728 76.8646 1.45733 77.2193 1.252C77.574 1.04667 78.0126 0.943999 78.5353 0.943999C79.0393 0.943999 79.4593 1.04667 79.7953 1.252C80.1313 1.45733 80.2993 1.728 80.2993 2.064V20.824C80.2993 21.1227 80.1313 21.3933 79.7953 21.636C79.4593 21.8787 79.0393 22 78.5353 22C78.0873 22 77.7046 21.8787 77.3873 21.636C77.07 21.3933 76.9113 21.1227 76.9113 20.824V20.04C76.6313 20.6187 76.1273 21.132 75.3993 21.58C74.69 22.028 73.8966 22.252 73.0193 22.252ZM74.1673 19.088C74.6526 19.088 75.082 18.9573 75.4553 18.696C75.8286 18.416 76.1273 18.1173 76.3513 17.8C76.5753 17.464 76.6873 17.2027 76.6873 17.016V14.216C76.6873 13.6933 76.5566 13.2453 76.2953 12.872C76.0526 12.4987 75.7353 12.2093 75.3433 12.004C74.97 11.7987 74.5873 11.696 74.1953 11.696C73.7473 11.696 73.3273 11.8267 72.9353 12.088C72.562 12.3307 72.2633 12.6387 72.0393 13.012C71.834 13.3853 71.7313 13.7867 71.7313 14.216V16.512C71.7313 16.9413 71.834 17.352 72.0393 17.744C72.2633 18.136 72.562 18.4627 72.9353 18.724C73.3086 18.9667 73.7193 19.088 74.1673 19.088ZM96.0283 22.252C95.151 22.252 94.3576 22.028 93.6483 21.58C92.939 21.132 92.435 20.6187 92.1363 20.04V20.824C92.1363 21.1227 91.9776 21.3933 91.6603 21.636C91.3616 21.8787 90.979 22 90.5123 22C90.0083 22 89.5883 21.8787 89.2523 21.636C88.9163 21.3933 88.7483 21.1227 88.7483 20.824V2.064C88.7483 1.728 88.9163 1.45733 89.2523 1.252C89.5883 1.04667 90.0083 0.943999 90.5123 0.943999C91.035 0.943999 91.4736 1.04667 91.8283 1.252C92.183 1.45733 92.3603 1.728 92.3603 2.064V10.66C92.659 10.1187 93.1163 9.63333 93.7323 9.204C94.3483 8.756 95.095 8.532 95.9723 8.532C96.887 8.532 97.7176 8.79333 98.4643 9.316C99.211 9.82 99.8083 10.5013 100.256 11.36C100.704 12.2187 100.928 13.1707 100.928 14.216V16.512C100.928 17.5013 100.704 18.4347 100.256 19.312C99.8083 20.1893 99.211 20.8987 98.4643 21.44C97.7363 21.9813 96.9243 22.252 96.0283 22.252ZM94.8803 19.088C95.3283 19.088 95.739 18.9667 96.1123 18.724C96.4856 18.4627 96.775 18.136 96.9803 17.744C97.2043 17.352 97.3163 16.9413 97.3163 16.512V14.216C97.3163 13.7867 97.2043 13.3853 96.9803 13.012C96.775 12.6387 96.4856 12.3307 96.1123 12.088C95.739 11.8267 95.319 11.696 94.8523 11.696C94.4603 11.696 94.0683 11.7987 93.6763 12.004C93.303 12.2093 92.9856 12.4987 92.7243 12.872C92.4816 13.2453 92.3603 13.6933 92.3603 14.216V17.016C92.3603 17.2027 92.4723 17.464 92.6963 17.8C92.9203 18.1173 93.219 18.416 93.5923 18.696C93.9843 18.9573 94.4136 19.088 94.8803 19.088ZM103.55 28.188C103.083 28.188 102.691 28.0947 102.374 27.908C102.056 27.74 101.898 27.32 101.898 26.648C101.898 26.2373 101.963 25.8827 102.094 25.584C102.243 25.2853 102.486 25.136 102.822 25.136C103.139 25.136 103.503 25.08 103.914 24.968C104.343 24.856 104.772 24.6413 105.202 24.324C105.631 24.0253 105.995 23.6053 106.294 23.064C106.592 22.5413 106.77 21.86 106.826 21.02L102.01 10.716C101.935 10.548 101.898 10.3893 101.898 10.24C101.898 9.92267 102.028 9.63333 102.29 9.372C102.57 9.11067 102.896 8.90533 103.27 8.756C103.643 8.588 103.988 8.504 104.306 8.504C104.53 8.504 104.735 8.55067 104.922 8.644C105.127 8.73733 105.267 8.896 105.342 9.12L108.702 17.492L111.39 9.12C111.483 8.896 111.623 8.73733 111.81 8.644C111.996 8.55067 112.183 8.504 112.37 8.504C112.65 8.504 112.986 8.588 113.378 8.756C113.77 8.90533 114.106 9.12 114.386 9.4C114.684 9.66133 114.834 9.96 114.834 10.296C114.834 10.464 114.806 10.604 114.75 10.716L110.662 21.16C110.326 22 109.999 22.8307 109.682 23.652C109.364 24.492 108.963 25.248 108.478 25.92C108.011 26.6107 107.386 27.1613 106.602 27.572C105.818 27.9827 104.8 28.188 103.55 28.188Z" fill="#10537D"/>
</svg>
